<svg viewBox="0 0 248 54" fill="none" xmlns="http://www.w3.org/2000/svg">
<path d="M30.4 47.7C24.8 47.7 20.2 46.1 16.6 42.9C13 39.7 11.2 35.3 11.2 30.1V5.5H19V29.7C19 32.7 19.8 35.2 21.6 37C23.4 38.8 26.2 39.7 30 39.7C33 39.7 35.6 38.9 37.6 37.3C39.6 35.6 40.6 33.1 40.6 29.8V5.5H48.4V46.6H41V40.7C39.6 42.9 37.8 44.6 35.5 45.8C33.2 47.1 30.6 47.7 27.7 47.7H30.4Z" fill="#0C2556"/>
<path d="M129.5 35.6C128.4 36.4 127 37 125.4 37.4C123.8 37.8 122.2 38 120.6 38H118V18.6L126.9 35.6ZM133.2 46.5L122.2 24.9C123.8 24.5 125.2 23.9 126.3 23C127.4 22.1 128.3 20.9 129 19.5C129.7 18.1 130 16.4 130 14.5C130 11.9 129.1 9.6 127.3 7.8C125.5 6 123 5.1 119.6 5.1H110.2V46.5H118V24.5H119.8L125.2 46.5H133.2Z" fill="#0C2556"/>
<path d="M149 47.6C145.4 47.6 142.1 46.8 139.1 45.2C136.1 43.6 133.7 41.3 132 38.4C130.3 35.5 129.5 32.2 129.5 28.5V24.5C129.5 20.8 130.3 17.5 132 14.6C133.7 11.7 136.1 9.4 139.1 7.8C142.1 6.2 145.4 5.3 149 5.3C152.6 5.3 155.9 6.2 158.9 7.8C161.9 9.4 164.2 11.7 165.9 14.6C167.6 17.5 168.5 20.8 168.5 24.5V28.5C168.5 32.2 167.6 35.5 165.9 38.4C164.2 41.3 161.9 43.6 158.9 45.2C155.9 46.8 152.6 47.6 149 47.6ZM149 39.8C152 39.8 154.5 38.8 156.4 36.8C158.3 34.8 159.2 32.1 159.2 28.7V24.3C159.2 20.9 158.3 18.2 156.4 16.2C154.5 14.2 152 13.2 149 13.2C146 13.2 143.5 14.2 141.6 16.2C139.7 18.2 138.8 20.9 138.8 24.3V28.7C138.8 32.1 139.7 34.8 141.6 36.8C143.5 38.8 146 39.8 149 39.8Z" fill="#0C2556"/>
<path d="M185.3 47.6C182.2 47.6 179.4 46.7 177 44.9C174.6 43.1 172.9 40.5 171.9 37.3L178.6 34.8C179.1 36.5 180 37.9 181.2 38.8C182.4 39.7 183.8 40.2 185.4 40.2C186.9 40.2 188.2 39.8 189.2 39C190.2 38.2 190.7 37 190.7 35.5C190.7 34.1 190.2 33 189.2 32.1C188.2 31.2 186.7 30.5 184.7 30L181.7 29.3C178.8 28.6 176.4 27.2 174.7 25.2C173 23.2 172.1 20.7 172.1 17.6C172.1 15.2 172.7 13.1 174 11.3C175.3 9.5 177 8 179.2 7C181.4 6 183.9 5.5 186.6 5.5C189.4 5.5 191.9 6.2 194.1 7.6C196.3 9 197.8 11.1 198.8 13.8L192.2 16.4C191.7 15.1 190.9 14.1 189.9 13.4C188.9 12.7 187.7 12.4 186.5 12.4C185.1 12.4 183.9 12.8 183 13.5C182.1 14.2 181.6 15.2 181.6 16.5C181.6 17.7 182.1 18.7 183 19.4C183.9 20.1 185.3 20.7 187.1 21.1L190.1 21.8C193.3 22.5 195.8 23.9 197.5 25.9C199.2 27.9 200.1 30.5 200.1 33.7C200.1 36.3 199.4 38.6 198 40.5C196.6 42.4 194.7 44 192.3 45.1C189.9 46.8 187.6 47.6 185.3 47.6Z" fill="#0C2556"/>
<path d="M57.6 27.9L64.4 7.5H72.8L61.6 37.8L61.5 37.9C60.5 40.8 59.2 43 57.5 44.5C55.8 46 53.6 46.8 51 46.8C50.1 46.8 49.3 46.7 48.6 46.5L49.3 39.2C49.9 39.4 50.7 39.5 51.5 39.5C52.6 39.5 53.5 39.1 54.2 38.3C54.9 37.5 55.4 36.5 55.7 35.3L56 34.6L46.8 7.5H55.4L57.6 27.9Z" fill="#67CEF5"/>
<path d="M78.9 44.4C77.4 44.4 76.1 43.1 76.1 41.6C76.1 40.1 77.4 38.8 78.9 38.8C80.4 38.8 81.7 40.1 81.7 41.6C81.7 43.1 80.5 44.4 78.9 44.4Z" fill="#67CEF5"/>
<path d="M85.7 37.5C85.7 39.5 86.8 41.4 88.5 42.6C90.2 43.8 92.4 44.5 94.6 44.5H102V13.5H94.1V37.5H85.7Z" fill="#67CEF5"/>
<path d="M88.9 25.6L102 5.5H88.7L75.6 25.6H88.9Z" fill="#67CEF5"/>
</svg>
